<?xml version="1.0" encoding="UTF-8"?>
<svg width="1200pt" height="1200pt" version="1.1" viewBox="0 0 1200 1200" xmlns="http://www.w3.org/2000/svg">
 <path d="m636 708c0 26.508-21.492 48-48 48s-48-21.492-48-48 21.492-48 48-48 48 21.492 48 48z"/>
 <path d="m396 288c0 26.508-21.492 48-48 48s-48-21.492-48-48 21.492-48 48-48 48 21.492 48 48z"/>
 <path d="m348 480c0 26.508-21.492 48-48 48s-48-21.492-48-48 21.492-48 48-48 48 21.492 48 48z"/>
 <path d="m792 636c0 26.508-21.492 48-48 48s-48-21.492-48-48 21.492-48 48-48 48 21.492 48 48z"/>
 <path d="m600 264c0 26.508-21.492 48-48 48s-48-21.492-48-48 21.492-48 48-48 48 21.492 48 48z"/>
 <path d="m706.56 310.32c-11.574-2.9375-23.828-1.4531-34.367 4.1602-10.539 5.6133-18.609 14.957-22.633 26.199-12.059 33.52-34.094 62.539-63.145 83.156-29.047 20.617-63.715 31.84-99.336 32.164h-1.9219 0.003906c-10.656-0.019531-21.016 3.5078-29.445 10.027-8.4297 6.5156-14.449 15.656-17.113 25.973-7.2891 28.711-21.75 55.105-42.023 76.703-20.277 21.594-45.703 37.691-73.898 46.777-10.387 3.3086-19.336 10.055-25.375 19.129-6.043 9.0742-8.8164 19.934-7.8633 30.789 7.2148 82.312 44.504 159.08 104.75 215.63 60.238 56.551 139.2 88.926 221.8 90.934 82.602 2.0078 163.05-26.492 225.96-80.051 62.918-53.559 103.89-128.42 115.1-210.29 11.207-81.859-8.1445-164.98-54.352-233.48-46.211-68.496-116.04-117.57-196.14-137.83zm-82.559 565.68c-53.895-0.33594-106.13-18.664-148.42-52.082-42.289-33.414-72.199-80-84.98-132.36 59.16-29.895 105.4-80.316 130.08-141.84 41.262-5.4688 80.707-20.371 115.28-43.555 34.566-23.184 63.324-54.023 84.043-90.125 50.531 22.059 91.93 60.84 117.23 109.83 25.301 48.988 32.965 105.2 21.699 159.17-11.266 53.973-40.77 102.42-83.555 137.2s-96.238 53.766-151.38 53.766z"/>
</svg>
