<svg width="945" height="1009" viewBox="0 0 945 1009" fill="none" xmlns="http://www.w3.org/2000/svg">
<path d="M512 656C512 691.344 483.344 720 448 720C412.656 720 384 691.344 384 656C384 620.656 412.656 592 448 592C483.344 592 512 620.656 512 656Z" fill="black"/>
<path d="M192 96C192 131.344 163.344 160 128 160C92.656 160 64 131.344 64 96C64 60.656 92.656 32 128 32C163.344 32 192 60.656 192 96Z" fill="black"/>
<path d="M128 352C128 387.344 99.344 416 64 416C28.656 416 0 387.344 0 352C0 316.656 28.656 288 64 288C99.344 288 128 316.656 128 352Z" fill="black"/>
<path d="M720 560C720 595.344 691.344 624 656 624C620.656 624 592 595.344 592 560C592 524.656 620.656 496 656 496C691.344 496 720 524.656 720 560Z" fill="black"/>
<path d="M464 64C464 99.344 435.344 128 400 128C364.656 128 336 99.344 336 64C336 28.656 364.656 0 400 0C435.344 0 464 28.656 464 64Z" fill="black"/>
<path d="M606.08 125.76C590.648 121.843 574.309 123.822 560.257 131.307C546.205 138.791 535.445 151.25 530.08 166.239C514.001 210.932 484.621 249.624 445.887 277.114C407.157 304.603 360.933 319.567 313.439 319.999H310.876H310.881C296.673 319.973 282.86 324.676 271.621 333.368C260.382 342.056 252.356 354.243 248.804 367.999C239.085 406.28 219.804 441.472 192.773 470.27C165.737 499.062 131.836 520.524 94.2427 532.639C80.3933 537.05 68.4613 546.046 60.4093 558.144C52.352 570.243 48.6541 584.723 49.9249 599.196C59.5447 708.946 109.264 811.303 189.592 886.703C269.909 962.104 375.192 1005.27 485.325 1007.95C595.461 1010.63 702.725 972.626 786.605 901.214C870.496 829.802 925.125 729.987 940.072 620.827C955.014 511.681 929.212 400.854 867.602 309.52C805.988 218.192 712.882 152.76 606.082 125.747L606.08 125.76ZM496.001 880C424.141 879.552 354.495 855.115 298.108 810.557C241.723 766.005 201.843 703.891 184.801 634.077C263.681 594.217 325.335 526.989 358.241 444.957C413.257 437.666 465.851 417.796 511.948 386.884C558.036 355.972 596.38 314.853 624.005 266.717C691.38 296.129 746.579 347.837 780.312 413.157C814.047 478.475 824.265 553.424 809.244 625.384C794.223 697.348 754.884 761.944 697.837 808.317C640.791 854.691 569.52 880.005 495.997 880.005L496.001 880Z" fill="black"/>
</svg>
